<?xml version="1.0" encoding="UTF-8"?>
<!DOCTYPE svg PUBLIC "-//W3C//DTD SVG 1.1//EN" "http://www.w3.org/Graphics/SVG/1.1/DTD/svg11.dtd">
<!-- Creator: CorelDRAW 2021 (64 Bit) -->
<svg xmlns="http://www.w3.org/2000/svg" xml:space="preserve" width="100mm" height="100mm" version="1.1" style="shape-rendering:geometricPrecision; text-rendering:geometricPrecision; image-rendering:optimizeQuality; fill-rule:evenodd; clip-rule:evenodd"
viewBox="0 0 10000 10000"
 xmlns:xlink="http://www.w3.org/1999/xlink"
 xmlns:xodm="http://www.corel.com/coreldraw/odm/2003">
 <defs>
  <style type="text/css">
   <![CDATA[
    .fil0 {fill:white}
   ]]>
  </style>
 </defs>
 <g id="Camada_x0020_1">
  <metadata id="CorelCorpID_0Corel-Layer"/>
  <g>
   <path class="fil0" d="M5811.77 4178.07l203.5 -0.41 48.53 -75.11 195.52 -0.43 9.71 75.05 198.7 -0.43 -85.75 -562.43 -185.16 0.41 -385.05 563.35zm334.71 -208.17l86.72 -135.81 15.38 135.62 -102.1 0.19zm506.54 206.43l181.15 -0.32 28.48 -108.64c24.55,-95.81 69.98,-141.38 155.3,-141.57l19.17 -0.08 50.67 -192.41c-70.25,-3.06 -120.41,35.38 -160.99,94.54l23.01 -87.86 -181.23 0.38 -115.56 435.96zm466.19 8.6c50.26,-0.14 82.95,-20.91 121.98,-53.74l-11.88 43.95 181.14 -0.38 63.37 -239.52c38.38,-149.52 -64.59,-202.6 -203.96,-202.33 -63.01,0.13 -132.48,9.11 -179.49,23.52l24.25 122.85c29.46,-11.21 78.91,-19.32 118.81,-19.37 50.4,-0.14 79.21,18.58 62.36,68.49 -113.22,-32.85 -293.69,-13.91 -293.36,137.86 0.16,75.02 49.75,118.83 116.78,118.67zm87.53 -103.13c-16.74,0.03 -29.51,-11.88 -29.54,-34.21 -0.19,-58.07 59.89,-66.43 104.41,-54.49l-4.75 18.33c-10.31,40.77 -41.37,70.34 -70.12,70.37zm18.42 -369.51l130.85 -0.3 160.99 -108.09 -174.06 -45.11 -117.78 153.5zm391.31 472.4c46.31,-0.14 93.37,-23.33 124.43,-55.34l-11.88 44.73 181.17 -0.41 154.35 -582.85 -181.12 0.36 -53.85 202.81c-24.79,-38.24 -65.59,-66.07 -127.81,-65.94 -127.71,0.27 -228.78,128.14 -228.48,286.96 0.24,107.75 65.86,169.87 143.19,169.68zm95.46 -147.84c-92.69,0.22 -67.76,-160.23 26.85,-160.45 92.66,-0.21 67.79,160.23 -26.85,160.45zm348.21 -330.31l187.55 -0.38 30.87 -115.85 -187.5 0.43 -30.92 115.8zm-121.14 467.08l181.17 -0.38 115.61 -435.94 -181.15 0.41 -115.63 435.91zm472.61 9.41c151.66,-0.35 260.7,-121.06 260.46,-254.33 -0.3,-113.36 -81.05,-202.52 -218.31,-202.25 -151.66,0.33 -260.68,121.01 -260.43,254.33 0.22,113.31 81,202.55 218.28,202.25zm10.88 -147.64c-93.83,0.08 -65.08,-161.05 20.37,-161.27 93.82,-0.21 65.13,161.05 -20.37,161.27zm-2197.48 871.49l212.34 -0.49 91.87 -347.21 103.87 -0.21 41.74 -158.2 -107.55 0.24c7.95,-33.09 23.87,-44.02 57.89,-44.08 16.81,-0.05 39.33,3.64 57.99,10.15l35.32 -131.97c-44.08,-13.02 -81.49,-18.52 -129.17,-18.42 -124.43,0.22 -194.44,48.13 -228.76,179.14l-59.94 0.11 -43.57 163.81 59.87 -0.13 -91.9 347.26zm472.55 10.23c58.97,-0.14 97.28,-24.53 143.01,-63.02l-13.89 51.49 212.31 -0.44 74.19 -280.77c45.33,-175.15 -76.03,-237.46 -239,-237.11 -73.86,0.16 -155.21,10.61 -210.36,27.61l28.35 143.99c34.55,-13.19 92.55,-22.68 139.31,-22.73 59.73,-0.17 92.2,21.64 73.16,80.29 -132.7,-38.52 -344.36,-16.36 -343.9,161.59 0.19,87.91 58.24,139.26 136.82,139.1zm102.67 -120.9c-19.63,0.02 -34.64,-13.92 -34.66,-40.15 -0.22,-68.25 70.14,-77.61 122.36,-63.85l-5.59 21.54c-12.04,47.71 -48.39,82.4 -82.11,82.46zm262.28 108.91l212.34 -0.49 67.74 -254.55c14.83,-56.18 39.08,-83.36 77.49,-83.44 49.81,-0.02 47.5,48.12 37.55,83.2l-67.71 254.57 212.34 -0.43 67.76 -254.6c14.84,-56.18 39.09,-83.36 77.42,-83.39 49.61,-0.16 47.55,48.12 37.62,83.17l-67.76 254.55 212.31 -0.41 74.25 -280.78c31.73,-117.43 9.65,-242.26 -140.81,-241.99 -72.05,0.17 -135.55,30.22 -186.87,84.55 -18.8,-48.58 -61.96,-84.03 -132.11,-83.9 -63.58,0.14 -115.88,33.97 -149.51,72.38l15.81 -59.93 -212.34 0.41 -135.52 511.08zm891.6 -1.93l212.34 -0.43 135.49 -511 -212.31 0.44 -135.52 510.99zm152.25 -542.84l153.43 -0.32 188.68 -126.68 -204.01 -52.84 -138.1 179.84zm95.76 542.35l212.39 -0.49 181.85 -683.16 -212.34 0.41 -181.9 683.24zm390.06 -548.02l219.78 -0.49 36.21 -135.68 -219.85 0.46 -36.14 135.71zm-141.97 547.51l212.31 -0.44 135.52 -511.07 -212.31 0.49 -135.52 511.02zm413.61 10.36c58.94,-0.14 97.19,-24.55 142.98,-62.96l-13.97 51.43 212.37 -0.41 74.21 -280.8c45.17,-175.21 -75.89,-237.43 -239.03,-237.08 -73.86,0.14 -155.24,10.63 -210.36,27.56l28.35 143.98c34.58,-13.15 92.58,-22.62 139.26,-22.73 59.22,-0.16 92.74,21.73 73.19,80.29 -132.76,-38.46 -344.2,-16.3 -343.93,161.59 0.22,87.94 58.37,139.26 136.93,139.13zm102.64 -120.9c-19.66,0.05 -34.69,-13.94 -34.74,-40.17 -0.11,-68.25 70.2,-77.58 122.44,-63.83l-5.59 21.54c-12.04,47.66 -48.47,82.38 -82.11,82.46zm-3398.6 -64.26c38.65,-0.11 77.93,-19.56 103.92,-46.22l-9.93 37.32 151.28 -0.3 128.98 -486.9 -151.33 0.32 -44.98 169.46c-20.75,-31.98 -54.76,-55.26 -106.76,-55.15 -106.63,0.22 -191.08,107.07 -190.78,239.71 0.19,89.95 54.96,141.87 119.6,141.76zm79.72 -123.5c-77.55,0.08 -56.5,-133.95 22.41,-134 77.36,-0.3 56.58,133.83 -22.41,134zm307.66 121.98c41.99,-0.11 69.28,-17.47 101.91,-44.87l-9.92 36.68 151.28 -0.33 52.92 -200.08c32.22,-124.77 -54.2,-169.18 -170.32,-168.91 -52.66,0.11 -110.65,7.52 -149.93,19.64l20.21 102.56c24.63,-9.33 65.94,-16.11 99.25,-16.19 42.51,-0.11 65.84,15.46 52.14,57.23 -94.56,-27.56 -245.27,-11.55 -245.05,115.15 0.13,62.64 41.52,99.2 97.51,99.12zm73.16 -86.15c-14,0.03 -24.71,-9.93 -24.71,-28.59 -0.11,-48.61 49.94,-55.39 87.18,-45.52l-3.99 15.33c-8.54,34.04 -34.53,58.72 -58.48,58.78zm-3058.66 -3844.12l1691.06 -510.61c99.47,-19.29 155.65,124.34 52.52,177.59l-1751.88 530.01 -1736.65 -522.66c-103.37,-52.87 -47.76,-196.71 51.76,-177.89l1693.19 503.56zm-0.44 -185.46c199.38,-233.47 551.79,-266.8 837.64,-295.83 193.65,-19.69 443.81,-37.87 618.71,-126.51l29.38 -14.89c62.31,25.11 119.24,42.04 167.85,91.57l-1653.25 499.52 -1655.27 -492.52c48.45,-49.8 105.2,-66.97 167.48,-92.34l29.48 14.73c175.21,87.95 425.39,105.12 619.2,123.97 290.08,28.24 638.97,60.57 838.78,292.3zm-0.16 -201.35c310.61,-373.95 855.92,-117.1 1242.63,-313.14l29.37 -14.89c66,26.5 121.31,42.64 172.31,96.16 -174.02,86.1 -416.79,102.89 -608.05,122.31 -285.07,28.97 -631.79,62.34 -836.18,288.02 -205.56,-224.79 -551.52,-256.66 -837.26,-284.47 -191.35,-18.63 -434.09,-34.45 -608.46,-119.78 50.65,-53.79 105.98,-70.15 171.84,-96.87l29.41 14.76c388.84,194.62 937.19,-62.39 1244.39,307.9zm1375.62 1083.35c110.76,54.41 188.5,180.11 188.83,326.59 0.43,196.72 -138.81,356.43 -310.87,356.78 -172.03,0.41 -311.91,-158.76 -312.32,-355.42 -0.24,-134.87 65.1,-252.41 161.72,-313.06l-3.2 -1.25c19.89,-220.53 85.31,-350.98 215.35,-543.49 222.14,-328.9 946.26,-435.72 1085.49,7.32 -441.33,-377.31 -947.34,-83.84 -1025,522.53zm2182.16 4398.62c219.17,183.39 458.88,391.04 630.37,620.12 346.07,462.14 230.73,915.51 -400.54,887.41 -198.1,-8.73 -377.48,-95.64 -535.76,-210.19 -148.75,-107.67 -275.7,-264.37 -381.49,-413.13 -235.07,-330.5 -419.64,-695.45 -638.49,-1036.74 -84.17,-131.21 -178.81,-269.41 -287.61,-381.39 -51.62,-53.11 -169.62,-169.29 -253.41,-157.6 -77.06,10.69 -151.98,132.84 -186.38,192.59 -203.79,354.59 -221.16,837.02 -197.83,1236.55 9.85,168.86 29.38,334.74 46.09,502.72 35.37,247.77 -50.54,499.82 -299.58,594.3 -133.18,50.54 -282.75,38.93 -408.86,-26.09 -148.14,-76.42 -244.76,-213.73 -289.65,-372.06 -52.19,-184.18 -37.76,-393.86 -8.76,-580.95 31.9,-206.51 58.37,-413.75 78.5,-621.72 117.48,-1216.45 190.8,-2435.05 -302.4,-3585.58 -93.09,-217.12 -185.67,-433.61 -270.87,-654.03 -74.82,-193.49 -145.37,-397.45 -188.93,-600.48 -21.76,-101.37 -43.87,-242.8 -24.28,-366.74l363.16 103.92 397.52 -116.05c53.25,53.55 101.1,110.98 141.95,174.56 148.3,230.73 211.04,520.43 270.82,784.85 43.13,190.59 87.11,391.75 166.45,570.81 353.64,798.14 1321.67,651.37 1942.74,262.55 399.07,-249.86 768.14,-544.44 1169.39,-791.23 185.05,-113.79 419.88,-232.68 638.94,-255.99 145.94,-15.51 301.56,12.81 394.11,137.23 138.29,185.95 47.85,450.56 -68.79,623.13 -112.41,166.23 -273.4,300.56 -447.93,397.59 -74.18,41.2 -156.54,76.41 -234.5,110.02 -114.03,49.2 -228.99,96.54 -343.68,144.44 -289,120.63 -577.18,243.75 -858.74,381.2 -205.97,100.42 -411.17,209.22 -604.07,333.18 -114.63,73.68 -245.46,160.56 -341.51,257.75 -132.37,133.76 -137.42,231.25 -45.49,392.56 66.84,117.46 162.95,233.48 249.18,337.34 227.47,274.32 488.48,527.68 748.67,770.59 126.78,118.48 256.2,234.74 381.66,354.56zm-1638.07 -5015.9c568.28,-1.22 1030.15,458.75 1031.32,1027.04 1.25,568.31 -458.72,1030.18 -1027.01,1031.37 -601.78,1.27 -1075.99,-512.38 -1028.09,-1111.01 1.39,201.57 144.72,399.07 357.74,398.63 213.77,-0.4 356.56,-200.02 356.16,-402.24 -0.36,-146.34 -75.6,-290.9 -198.18,-359.55 38.73,-229.97 150.71,-467.13 357.54,-572.95 49.15,-7.27 99.36,-11.15 150.52,-11.29zm-846.89 596.99c-76.39,50.45 -131.86,131.45 -158.69,222.35 33.72,-162.65 105.93,-311.33 206.57,-436.02 -22.82,64.66 -38.71,133.67 -47.88,213.67zm2975.06 7742.05l297.19 -0.63 76.82 -290.98 415.3 -0.89 61.71 -231.22 -415.27 0.84 30.24 -113.06 447.06 -0.92 68.03 -254.14 -744.22 1.54 -236.86 889.46zm814.02 -1.71l290.81 -0.6 117.21 -440.9 120.01 315.93 5.1 0 288.83 -316.83 -117.1 440.93 295.86 -0.62 236.86 -889.48 -326.32 0.71 -273.67 312.97 -107.34 -312.16 -293.39 0.6 -236.86 889.45zm-779.3 -999.94l774.12 -1.62 1218.64 -1367.95 140.33 -458.92 -1689.53 3.53 -106.17 351.6c18.91,49.48 33.61,100.26 42.29,151.45l824.35 -1.71 -1204.03 1323.62zm-5404.68 1106.3c509.53,-1.03 895.23,-192.95 1173.35,-472.21 330.88,-332.23 511.37,-801.18 541.83,-1241.46 -159.36,-205.29 -179.32,-470.93 -155.97,-721.16 -211.47,-332.67 -580.52,-465.37 -964.21,-464.56 -684.7,1.44 -1245.01,496.27 -1243.63,1157.1 0.98,461.79 351.9,731.77 753.9,730.93 262.77,-0.57 473.59,-84.6 632.6,-204.36 -122.58,302.72 -395.35,502.39 -727.48,503.12 -179.11,0.38 -390.31,-90.76 -533.89,-213.88l-412.66 641.82c231.3,186.65 557.92,285.47 936.16,284.66zm506.19 -1589.46c-155.24,0.35 -258.97,-110.92 -259.29,-254.22 -0.44,-207.02 146.42,-402.41 353.42,-402.85 150.38,-0.29 258.97,103.22 259.32,254.28 0.41,206.97 -146.48,402.36 -353.45,402.79zm2447.53 1531.52l903.71 -1.9 130.34 -481.97 330.37 -0.71 177.81 -657.23 -334.41 0.71 250.94 -946.71c-111.32,-102.13 -208.13,-224.52 -294.01,-345.23 -86.4,-121.52 -165.85,-247.74 -242.78,-375.45l-306.85 0.6 -799.12 709.9c24.66,274.98 -88.21,543.58 -362.29,647.6 -122.17,46.36 -256.01,48.75 -379.57,11.45l-318.67 283.08 108.91 676.57 1261.97 -2.68 -126.35 481.97zm-304.95 -1125.99l790.77 -702.31 -185.62 701.06 -605.15 1.25zm1528.48 1792.22c708.57,-37.3 954.79,-308.55 1089.12,-798.5l213.32 -804.57 -923.61 1.92 -244.91 916.15 362.31 -0.76c-55.36,203.14 -222.29,318.94 -520.73,355.4l24.5 330.36zm19.23 -8486.43c141.19,60 229.51,216.51 229.86,375.09 0.27,126.9 -55.85,252.7 -150.46,328.95 55.14,-236.21 27.2,-485.82 -79.4,-704.04zm472.26 182.42c-4.34,-2.33 -8.11,-5.7 -10.85,-9.77l10.85 9.77zm1008.12 -492.41l-18.06 5.28 18.06 -5.28z"/>
  </g>
 </g>
</svg>
